<mxfile host="Electron" agent="Mozilla/5.0 (X11; Linux x86_64) AppleWebKit/537.36 (KHTML, like Gecko) draw.io/24.7.5 Chrome/126.0.6478.183 Electron/31.3.0 Safari/537.36" version="24.7.5">
  <diagram name="Docker Engine" id="aNDntJ2Dq3sxIKJjX8QK">
    <mxGraphModel dx="1364" dy="1693" grid="1" gridSize="10" guides="1" tooltips="1" connect="1" arrows="1" fold="1" page="1" pageScale="1" pageWidth="1100" pageHeight="850" math="0" shadow="0">
      <root>
        <mxCell id="0" />
        <mxCell id="1" parent="0" />
        <mxCell id="sW-uVkNBvPEmtZR9VkLa-7" value="" style="shape=curlyBracket;whiteSpace=wrap;html=1;rounded=1;flipH=1;labelPosition=right;verticalLabelPosition=middle;align=left;verticalAlign=middle;direction=north;strokeWidth=3;" vertex="1" parent="1">
          <mxGeometry x="310.5" y="190" width="480" height="80" as="geometry" />
        </mxCell>
        <mxCell id="sW-uVkNBvPEmtZR9VkLa-11" value="" style="shape=curlyBracket;whiteSpace=wrap;html=1;rounded=1;flipH=1;labelPosition=right;verticalLabelPosition=middle;align=left;verticalAlign=middle;direction=north;strokeWidth=3;" vertex="1" parent="1">
          <mxGeometry x="110" y="530" width="880" height="80" as="geometry" />
        </mxCell>
        <mxCell id="sW-uVkNBvPEmtZR9VkLa-2" value="" style="ellipse;whiteSpace=wrap;html=1;aspect=fixed;fillColor=#54B1EF;fontColor=#ffffff;strokeColor=#006EAF;" vertex="1" parent="1">
          <mxGeometry x="265" y="250" width="570" height="570" as="geometry" />
        </mxCell>
        <mxCell id="sW-uVkNBvPEmtZR9VkLa-3" value="" style="ellipse;whiteSpace=wrap;html=1;aspect=fixed;fillColor=#566AEF;fontColor=#ffffff;strokeColor=#001DBC;" vertex="1" parent="1">
          <mxGeometry x="320" y="360" width="460" height="460" as="geometry" />
        </mxCell>
        <mxCell id="sW-uVkNBvPEmtZR9VkLa-4" value="" style="ellipse;whiteSpace=wrap;html=1;aspect=fixed;fillColor=#4152B8;fontColor=#ffffff;strokeColor=#001DBC;" vertex="1" parent="1">
          <mxGeometry x="375" y="470" width="350" height="350" as="geometry" />
        </mxCell>
        <mxCell id="sW-uVkNBvPEmtZR9VkLa-5" value="" style="image;sketch=0;aspect=fixed;html=1;points=[];align=center;fontSize=12;image=img/lib/mscae/Docker.svg;" vertex="1" parent="1">
          <mxGeometry x="468" y="610" width="165" height="135.3" as="geometry" />
        </mxCell>
        <mxCell id="sW-uVkNBvPEmtZR9VkLa-6" value="&lt;h1 style=&quot;margin-top: 0px; font-size: 53px;&quot;&gt;Docker &lt;font style=&quot;font-size: 53px;&quot; color=&quot;#54b1ef&quot;&gt;Engine&lt;/font&gt;&lt;/h1&gt;" style="text;html=1;whiteSpace=wrap;overflow=hidden;rounded=0;" vertex="1" parent="1">
          <mxGeometry x="355.5" y="-7" width="390" height="120" as="geometry" />
        </mxCell>
        <mxCell id="sW-uVkNBvPEmtZR9VkLa-9" value="" style="rounded=1;whiteSpace=wrap;html=1;strokeWidth=2;" vertex="1" parent="1">
          <mxGeometry x="230" y="80" width="170" height="110" as="geometry" />
        </mxCell>
        <mxCell id="sW-uVkNBvPEmtZR9VkLa-10" value="" style="rounded=1;whiteSpace=wrap;html=1;strokeWidth=2;" vertex="1" parent="1">
          <mxGeometry x="700" y="80" width="170" height="110" as="geometry" />
        </mxCell>
        <mxCell id="sW-uVkNBvPEmtZR9VkLa-12" value="" style="rounded=1;whiteSpace=wrap;html=1;strokeWidth=2;" vertex="1" parent="1">
          <mxGeometry x="30" y="420" width="170" height="110" as="geometry" />
        </mxCell>
        <mxCell id="sW-uVkNBvPEmtZR9VkLa-13" value="" style="rounded=1;whiteSpace=wrap;html=1;strokeWidth=2;" vertex="1" parent="1">
          <mxGeometry x="900" y="420" width="170" height="110" as="geometry" />
        </mxCell>
        <mxCell id="sW-uVkNBvPEmtZR9VkLa-14" value="&lt;font style=&quot;font-size: 15px;&quot;&gt;&lt;b&gt;network&lt;/b&gt;&lt;/font&gt;" style="text;html=1;align=center;verticalAlign=middle;whiteSpace=wrap;rounded=0;strokeWidth=2;" vertex="1" parent="1">
          <mxGeometry x="70" y="460" width="90" height="30" as="geometry" />
        </mxCell>
        <mxCell id="sW-uVkNBvPEmtZR9VkLa-15" value="&lt;font style=&quot;font-size: 15px;&quot;&gt;&lt;b&gt;container&lt;/b&gt;&lt;/font&gt;" style="text;html=1;align=center;verticalAlign=middle;whiteSpace=wrap;rounded=0;strokeWidth=2;" vertex="1" parent="1">
          <mxGeometry x="270" y="120" width="90" height="30" as="geometry" />
        </mxCell>
        <mxCell id="sW-uVkNBvPEmtZR9VkLa-16" value="&lt;font style=&quot;font-size: 15px;&quot;&gt;&lt;b&gt;image&lt;/b&gt;&lt;/font&gt;" style="text;html=1;align=center;verticalAlign=middle;whiteSpace=wrap;rounded=0;strokeWidth=2;" vertex="1" parent="1">
          <mxGeometry x="740" y="120" width="90" height="30" as="geometry" />
        </mxCell>
        <mxCell id="sW-uVkNBvPEmtZR9VkLa-17" value="&lt;font style=&quot;font-size: 15px;&quot;&gt;&lt;b&gt;data volumes&lt;/b&gt;&lt;/font&gt;" style="text;html=1;align=center;verticalAlign=middle;whiteSpace=wrap;rounded=0;strokeWidth=2;" vertex="1" parent="1">
          <mxGeometry x="935" y="460" width="100" height="30" as="geometry" />
        </mxCell>
        <mxCell id="sW-uVkNBvPEmtZR9VkLa-18" value="&lt;font size=&quot;1&quot; style=&quot;&quot;&gt;&lt;b style=&quot;font-size: 21px;&quot;&gt;Client&lt;/b&gt;&lt;/font&gt;" style="text;html=1;align=center;verticalAlign=middle;whiteSpace=wrap;rounded=0;strokeWidth=2;" vertex="1" parent="1">
          <mxGeometry x="500" y="260" width="100" height="30" as="geometry" />
        </mxCell>
        <mxCell id="sW-uVkNBvPEmtZR9VkLa-19" value="&lt;font size=&quot;1&quot; style=&quot;&quot;&gt;&lt;b style=&quot;font-size: 21px;&quot;&gt;REST API&lt;/b&gt;&lt;/font&gt;" style="text;html=1;align=center;verticalAlign=middle;whiteSpace=wrap;rounded=0;strokeWidth=2;" vertex="1" parent="1">
          <mxGeometry x="500" y="390" width="100" height="30" as="geometry" />
        </mxCell>
        <mxCell id="sW-uVkNBvPEmtZR9VkLa-20" value="&lt;font size=&quot;1&quot; style=&quot;&quot;&gt;&lt;b style=&quot;font-size: 21px;&quot;&gt;Server&lt;/b&gt;&lt;/font&gt;" style="text;html=1;align=center;verticalAlign=middle;whiteSpace=wrap;rounded=0;strokeWidth=2;" vertex="1" parent="1">
          <mxGeometry x="500" y="500" width="100" height="30" as="geometry" />
        </mxCell>
        <mxCell id="sW-uVkNBvPEmtZR9VkLa-21" value="&lt;span style=&quot;font-size: 21px;&quot;&gt;&lt;b&gt;&lt;font color=&quot;#54b1ef&quot;&gt;manages&lt;/font&gt;&lt;/b&gt;&lt;/span&gt;" style="text;html=1;align=center;verticalAlign=middle;whiteSpace=wrap;rounded=0;strokeWidth=2;" vertex="1" parent="1">
          <mxGeometry x="140" y="570" width="100" height="30" as="geometry" />
        </mxCell>
        <mxCell id="sW-uVkNBvPEmtZR9VkLa-22" value="&lt;span style=&quot;font-size: 21px;&quot;&gt;&lt;b&gt;&lt;font color=&quot;#54b1ef&quot;&gt;manages&lt;/font&gt;&lt;/b&gt;&lt;/span&gt;" style="text;html=1;align=center;verticalAlign=middle;whiteSpace=wrap;rounded=0;strokeWidth=2;" vertex="1" parent="1">
          <mxGeometry x="860" y="570" width="100" height="30" as="geometry" />
        </mxCell>
        <mxCell id="sW-uVkNBvPEmtZR9VkLa-23" value="&lt;span style=&quot;font-size: 21px;&quot;&gt;&lt;b&gt;&lt;font color=&quot;#54b1ef&quot;&gt;manages&lt;/font&gt;&lt;/b&gt;&lt;/span&gt;" style="text;html=1;align=center;verticalAlign=middle;whiteSpace=wrap;rounded=0;strokeWidth=2;" vertex="1" parent="1">
          <mxGeometry x="633" y="190" width="100" height="30" as="geometry" />
        </mxCell>
        <mxCell id="sW-uVkNBvPEmtZR9VkLa-24" value="&lt;span style=&quot;font-size: 21px;&quot;&gt;&lt;b&gt;&lt;font color=&quot;#54b1ef&quot;&gt;manages&lt;/font&gt;&lt;/b&gt;&lt;/span&gt;" style="text;html=1;align=center;verticalAlign=middle;whiteSpace=wrap;rounded=0;strokeWidth=2;" vertex="1" parent="1">
          <mxGeometry x="368" y="190" width="100" height="30" as="geometry" />
        </mxCell>
        <mxCell id="sW-uVkNBvPEmtZR9VkLa-25" value="&lt;pre&gt;&lt;font face=&quot;Courier New&quot; style=&quot;font-size: 15px;&quot;&gt;&lt;b style=&quot;&quot;&gt;docker daemon&lt;/b&gt;&lt;/font&gt;&lt;/pre&gt;" style="text;html=1;align=center;verticalAlign=middle;whiteSpace=wrap;rounded=0;strokeWidth=2;" vertex="1" parent="1">
          <mxGeometry x="490" y="540" width="120" height="30" as="geometry" />
        </mxCell>
        <mxCell id="sW-uVkNBvPEmtZR9VkLa-26" value="&lt;pre&gt;&lt;font face=&quot;Courier New&quot; style=&quot;font-size: 15px;&quot;&gt;&lt;b style=&quot;&quot;&gt;docker CLI&lt;/b&gt;&lt;/font&gt;&lt;/pre&gt;" style="text;html=1;align=center;verticalAlign=middle;whiteSpace=wrap;rounded=0;strokeWidth=2;" vertex="1" parent="1">
          <mxGeometry x="490" y="290" width="120" height="30" as="geometry" />
        </mxCell>
      </root>
    </mxGraphModel>
  </diagram>
</mxfile>
